<?xml version="1.0" encoding="UTF-8"?>
<svg width="502px" height="64px" viewBox="0 0 502 64" version="1.1" xmlns="http://www.w3.org/2000/svg" xmlns:xlink="http://www.w3.org/1999/xlink">
    <!-- Generator: Sketch 49 (51002) - http://www.bohemiancoding.com/sketch -->
    <title>Logo / Logo Wordmark Light</title>
    <desc>Created with Sketch.</desc>
    <defs></defs>
    <g id="Logo-/-Logo-Wordmark-Light" stroke="none" stroke-width="1" fill="none" fill-rule="evenodd">
        <g id="Logo-/-Logo-Light" fill="#FFBC49">
            <path d="M6.46658348,51.2914249 L24.5882154,31.7100671 L36.3919643,44.9040027 L61.6578365,19.9603147 C63.1680616,23.676799 64,27.7412447 64,32 C64,49.673112 49.673112,64 32,64 C21.5718717,64 12.3087856,59.0118611 6.46658348,51.2914249 Z M2.67413319,44.8261824 C0.954300409,40.8995225 0,36.5612056 0,32 C0,14.326888 14.326888,0 32,0 C42.7194236,0 52.2078082,5.27070458 58.0149409,13.3619009 L36.7389858,34.5479032 L24.6677584,21.0621207 L2.67413319,44.8261824 Z" id="The-logo-mark"></path>
        </g>
        <g id="Logo-/-Wordmark-Light" transform="translate(80.000000, 9.000000)" fill="#FFFFFF">
            <path d="M-3.99680289e-14,1.1520055 L30.0161433,1.1520055 L30.0161433,8.44804034 L8.06403851,8.44804034 L8.06403851,19.5840935 L28.8641378,19.5840935 L28.8641378,26.8801284 L8.06403851,26.8801284 L8.06403851,39.168187 L31.1681488,39.168187 L31.1681488,46.4642219 L-3.99680289e-14,46.4642219 L-3.99680289e-14,1.1520055 Z M87.744419,46.4642219 L61.3762931,46.4642219 C57.8349251,46.4642219 54.5602756,45.9202247 51.5522462,44.8322141 C48.5442168,43.7442035 45.9415637,42.1868783 43.7442089,40.1601918 C41.5468541,38.1335053 39.8188631,35.6588516 38.5601841,32.7361563 C37.3015052,29.8134611 36.6721751,26.5174783 36.6721751,22.8481091 C36.6721751,19.5200766 37.3015052,16.4587592 38.5601841,13.6640652 C39.8188631,10.8693713 41.5361875,8.45871719 43.7122087,6.43203071 C45.88823,4.40534424 48.4162168,2.82668582 51.296245,1.6960081 C54.1762731,0.56533038 57.2375904,0 60.4802888,0 C63.7229872,0 66.7843045,0.56533038 69.6643327,1.6960081 C72.5443608,2.82668582 75.0723476,4.40534424 77.2483689,6.43203071 C79.4243902,8.45871719 81.1417145,10.8693713 82.4003935,13.6640652 C83.6590725,16.4587592 84.2884025,19.5200766 84.2884025,22.8481091 C84.2884025,25.2374658 84.000404,27.3387882 83.4243984,29.1521392 C82.8483927,30.9654903 82.0910634,32.5654819 81.1523875,33.9521621 C80.2137117,35.3388424 79.1790504,36.5015029 78.0483727,37.4401788 C76.917695,38.3788546 75.8190341,39.1681838 74.752357,39.8081901 L74.752357,39.9361907 L87.744419,39.9361907 L87.744419,46.4642219 Z M60.2882879,7.29603484 C58.1122666,7.29603484 56.0962772,7.69069945 54.240259,8.48004049 C52.3842409,9.26938154 50.7842492,10.3680425 49.4402361,11.7760562 C48.096223,13.18407 47.0402285,14.8480613 46.272221,16.7680801 C45.5042135,18.6880988 45.1202155,20.7787546 45.1202155,23.04011 C45.1202155,25.3441325 45.5042135,27.4881213 46.272221,29.4721407 C47.0402285,31.4561601 48.1068896,33.1628179 49.4722362,34.5921652 C50.8375829,36.0215125 52.4482412,37.1415066 54.3042593,37.9521812 C56.1602775,38.7628558 58.1976002,39.168187 60.4162885,39.168187 C62.6349769,39.168187 64.6936328,38.7628558 66.592318,37.9521812 C68.4910032,37.1415066 70.1229947,36.0215125 71.4883414,34.5921652 C72.8536881,33.1628179 73.9203492,31.4561601 74.6883567,29.4721407 C75.4563642,27.4881213 75.8403622,25.3441325 75.8403622,23.04011 C75.8403622,20.7787546 75.4563642,18.6880988 74.6883567,16.7680801 C73.9203492,14.8480613 72.8536881,13.18407 71.4883414,11.7760562 C70.1229947,10.3680425 68.4910032,9.26938154 66.592318,8.48004049 C64.6936328,7.69069945 62.5923104,7.29603484 60.2882879,7.29603484 Z M129.92062,29.8241424 C129.92062,32.5548358 129.45129,35.0188229 128.512614,37.2161777 C127.573938,39.4135325 126.293945,41.2801894 124.672595,42.8162045 C123.051246,44.3522195 121.131256,45.5362133 118.912568,46.3682214 C116.693879,47.2002296 114.283225,47.6162274 111.680533,47.6162274 C109.077841,47.6162274 106.667187,47.2002296 104.448499,46.3682214 C102.22981,45.5362133 100.299154,44.3522195 98.6564711,42.8162045 C97.0137884,41.2801894 95.7337951,39.4135325 94.8164528,37.2161777 C93.8991105,35.0188229 93.4404462,32.5548358 93.4404462,29.8241424 L93.4404462,1.1520055 L101.504485,1.1520055 L101.504485,29.5681412 C101.504485,30.6774854 101.67515,31.840146 102.016487,33.0561579 C102.357824,34.2721697 102.923154,35.3921639 103.712495,36.4161739 C104.501836,37.4401839 105.547164,38.2828462 106.84851,38.944186 C108.149856,39.6055258 109.760515,39.9361907 111.680533,39.9361907 C113.600552,39.9361907 115.21121,39.6055258 116.512556,38.944186 C117.813902,38.2828462 118.85923,37.4401839 119.648571,36.4161739 C120.437912,35.3921639 121.003243,34.2721697 121.344579,33.0561579 C121.685916,31.840146 121.856582,30.6774854 121.856582,29.5681412 L121.856582,1.1520055 L129.92062,1.1520055 L129.92062,29.8241424 Z M139.648667,1.1520055 L147.712705,1.1520055 L147.712705,46.4642219 L139.648667,46.4642219 L139.648667,1.1520055 Z M157.632753,1.1520055 L173.376828,1.1520055 C175.552849,1.1520055 177.654172,1.35467111 179.680858,1.7600084 C181.707545,2.1653457 183.510202,2.85867541 185.088884,3.84001834 C186.667566,4.82136126 187.926226,6.14402102 188.864902,7.80803729 C189.803578,9.47205355 190.272909,11.5840425 190.272909,14.1440675 C190.272909,17.429433 189.366247,20.1814186 187.552896,22.400107 C185.739545,24.6187953 183.147558,25.9627883 179.776858,26.4321262 L191.808916,46.4642219 L182.080869,46.4642219 L171.584819,27.2641302 L165.696791,27.2641302 L165.696791,46.4642219 L157.632753,46.4642219 L157.632753,1.1520055 Z M171.968821,20.3520972 C173.120832,20.3520972 174.272826,20.2987641 175.424838,20.1920964 C176.576849,20.0854287 177.632843,19.8294301 178.592853,19.4240928 C179.552862,19.0187555 180.331525,18.400092 180.928864,17.5680839 C181.526203,16.7360758 181.824868,15.5734152 181.824868,14.0800672 C181.824868,12.7573876 181.547536,11.6907265 180.992864,10.880052 C180.438192,10.0693774 179.712863,9.46138054 178.816854,9.05604325 C177.920845,8.65070595 176.92885,8.38404068 175.84084,8.25603943 C174.752829,8.12803817 173.696835,8.06403851 172.672825,8.06403851 L165.696791,8.06403851 L165.696791,20.3520972 L171.968821,20.3520972 Z M212.609015,1.1520055 L219.585049,1.1520055 L239.105142,46.4642219 L229.889098,46.4642219 L225.665078,36.0961724 L206.016984,36.0961724 L201.920964,46.4642219 L192.896921,46.4642219 L212.609015,1.1520055 Z M222.849064,29.1841394 L215.873031,10.7520513 L208.768997,29.1841394 L222.849064,29.1841394 Z M247.553182,8.44804034 L233.665116,8.44804034 L233.665116,1.1520055 L269.505287,1.1520055 L269.505287,8.44804034 L255.617221,8.44804034 L255.617221,46.4642219 L247.553182,46.4642219 L247.553182,8.44804034 Z M274.817312,1.1520055 L282.881351,1.1520055 L282.881351,46.4642219 L274.817312,46.4642219 L274.817312,1.1520055 Z M292.801398,1.1520055 L303.489449,1.1520055 L325.441554,34.8161663 L325.569555,34.8161663 L325.569555,1.1520055 L333.633593,1.1520055 L333.633593,46.4642219 L323.393544,46.4642219 L300.993437,11.7120559 L300.865437,11.7120559 L300.865437,46.4642219 L292.801398,46.4642219 L292.801398,1.1520055 Z M384.001834,43.136206 C378.412446,46.1229019 372.161812,47.6162274 365.249744,47.6162274 C361.751043,47.6162274 358.540393,47.050897 355.617698,45.9202193 C352.695003,44.7895416 350.177683,43.1895499 348.065662,41.1201964 C345.953641,39.0508428 344.300317,36.5655225 343.105638,33.6641608 C341.91096,30.7627991 341.31363,27.5414826 341.31363,24.0001146 C341.31363,20.3734125 341.91096,17.0774297 343.105638,14.1120674 C344.300317,11.1467051 345.953641,8.61871828 348.065662,6.52803117 C350.177683,4.43734407 352.695003,2.82668582 355.617698,1.6960081 C358.540393,0.56533038 361.751043,0 365.249744,0 C368.705778,0 371.948428,0.415997827 374.977791,1.24800596 C378.007154,2.08001409 380.716473,3.56267301 383.105829,5.6960272 L377.153801,11.7120559 C375.70312,10.3040422 373.943129,9.21604785 371.873776,8.44804034 C369.804422,7.68003283 367.617767,7.29603484 365.313744,7.29603484 C362.967055,7.29603484 360.844399,7.71203267 358.945714,8.5440408 C357.047029,9.37604893 355.415037,10.5280429 354.049691,12.0000573 C352.684344,13.4720717 351.62835,15.1893961 350.881676,17.1520819 C350.135002,19.1147678 349.76167,21.2267567 349.76167,23.4881122 C349.76167,25.9201359 350.135002,28.1601242 350.881676,30.2081443 C351.62835,32.2561643 352.684344,34.0268217 354.049691,35.5201696 C355.415037,37.0135176 357.047029,38.1868448 358.945714,39.0401864 C360.844399,39.8935281 362.967055,40.3201925 365.313744,40.3201925 C367.361765,40.3201925 369.292421,40.1281935 371.105772,39.7441898 C372.919123,39.360186 374.529781,38.7628558 375.937795,37.9521812 L375.937795,27.2641302 L366.657751,27.2641302 L366.657751,19.9680954 L384.001834,19.9680954 L384.001834,43.136206 Z M415.745985,10.880052 C414.892644,9.64270653 413.751316,8.7360446 412.321969,8.16003897 C410.892622,7.58403334 409.38863,7.29603484 407.809947,7.29603484 C406.871272,7.29603484 405.96461,7.40270095 405.089934,7.61603637 C404.215259,7.82937179 403.42593,8.17070334 402.721923,8.64004126 C402.017916,9.10937918 401.452586,9.717376 401.025915,10.46405 C400.599244,11.2107239 400.385912,12.0960526 400.385912,13.1200627 C400.385912,14.6560777 400.919243,15.8294049 401.98592,16.6400795 C403.052597,17.4507541 404.375256,18.1547504 405.953939,18.7520895 C407.532621,19.3494287 409.260612,19.9254257 411.137963,20.4800978 C413.015315,21.0347699 414.743306,21.8027659 416.321988,22.7841088 C417.90067,23.7654517 419.22333,25.0667783 420.290007,26.6881274 C421.356684,28.3094766 421.890015,30.464132 421.890015,33.1521583 C421.890015,35.5841821 421.442017,37.7068377 420.546008,39.5201887 C419.649999,41.3335398 418.444672,42.8375319 416.929991,44.0322103 C415.415309,45.2268886 413.655319,46.1228839 411.649966,46.7202231 C409.644613,47.3175623 407.532624,47.6162274 405.313935,47.6162274 C402.497908,47.6162274 399.788589,47.1468965 397.185897,46.2082207 C394.583205,45.2695448 392.343216,43.6908864 390.465865,41.472198 L396.545894,35.5841699 C397.527237,37.0775179 398.817896,38.2401784 400.417912,39.0721866 C402.017928,39.9041947 403.713919,40.3201925 405.505936,40.3201925 C406.444612,40.3201925 407.383274,40.1921932 408.32195,39.9361907 C409.260626,39.6801882 410.113955,39.2961902 410.881962,38.7841852 C411.64997,38.2721802 412.268633,37.6215169 412.737971,36.8321759 C413.207309,36.0428348 413.441974,35.1361729 413.441974,34.1121629 C413.441974,32.4481466 412.908644,31.1681533 411.841967,30.2721446 C410.77529,29.3761358 409.45263,28.6188064 407.873948,28.0001337 C406.295266,27.381461 404.567275,26.7947974 402.689923,26.2401253 C400.812571,25.6854532 399.08458,24.9281238 397.505898,23.9681145 C395.927216,23.0081051 394.604556,21.7281118 393.537879,20.1280961 C392.471202,18.5280805 391.937872,16.3840917 391.937872,13.6960654 C391.937872,11.3493758 392.417869,9.32271972 393.377878,7.61603637 C394.337888,5.90935302 395.596548,4.49069376 397.153897,3.36001605 C398.711245,2.22933833 400.492569,1.38667606 402.497922,0.832003973 C404.503275,0.277331884 406.551264,0 408.641951,0 C411.031308,0 413.345963,0.362664772 415.585985,1.0880052 C417.826006,1.81334562 419.841996,3.00800604 421.634013,4.67202231 L415.745985,10.880052 Z" id="EQUIRATINGS"></path>
        </g>
    </g>
</svg>